<?xml version="1.0" encoding="utf-8"?>
<!-- Generator: Adobe Illustrator 16.0.0, SVG Export Plug-In . SVG Version: 6.00 Build 0)  -->
<!DOCTYPE svg PUBLIC "-//W3C//DTD SVG 1.1//EN" "http://www.w3.org/Graphics/SVG/1.1/DTD/svg11.dtd">
<svg version="1.1" id="Capa_1" xmlns="http://www.w3.org/2000/svg" xmlns:xlink="http://www.w3.org/1999/xlink" x="0px" y="0px"
	 width="1500px" height="1500px" viewBox="-675 -675 1500 1500" enable-background="new -675 -675 1500 1500" xml:space="preserve">
<g>
	<path opacity="0.1" fill="#1D1D1B" enable-background="new    " d="M-618.17,442.387c0,0,600.739,312.908,1020.706,39.108
		C822.43,207.869,218.223,238.085,46.59,246.701C-125.075,255.275-618.17,442.387-618.17,442.387z"/>
	<g>
		<g>
			<path fill="#D0455C" d="M-64.683-254.052c0,0,223.644-240.153,331.329-240.153c0,0,66.309-0.087,57.959,66.243
				c-8.287,66.226,49.735,115.971,74.617,132.551c24.853,16.503,16.463,115.889,16.463,115.889s-91.08,8.38-165.644,41.452
				C175.547-104.921-64.683-254.052-64.683-254.052z"/>
			<path fill="#F7B844" d="M-48.113-287.134l57.954-45.591c0,0,120.198,20.719,120.198,82.812
				C130.039-187.727-48.113-287.134-48.113-287.134z"/>
			<path fill="#E84E68" d="M143.146-254.554c562.532,207.66,429.955,704.622,297.421,737.793
				c-132.557,33.189-911.13,49.672-1043.707-33.171C-735.674,367.257-419.371-462.055,143.146-254.554z"/>
			<path fill="#E84E68" d="M397.601-284.088c0,0-200.299-7.698-276.445,10.913l4.656,7.789c0,0,183.819,28.939,289.873,85.854
				c0,0,9.917-85.854-8.697-104.556H397.601z"/>
			<path fill="#E84E68" d="M256.339-478.219c0,0-156.896,91.698-189.487,133.57c-32.653,41.96,7.699,0,7.699,0
				s192.618-100.909,222.115-100.909l27.938-7.795c0,0-18.615-43.467-48.143-40.34L256.339-478.219z"/>
		</g>
	</g>
	<g opacity="0.5">
		
			<text transform="matrix(0.9839 -0.1788 0.1788 0.9839 -210.314 351.1826)" fill="#1D1D1B" font-family="'NexaBold'" font-size="604.717">€</text>
		
			<text transform="matrix(0.9839 -0.1788 0.1788 0.9839 -203.7163 354.1367)" fill="#1D1D1B" font-family="'NexaBold'" font-size="604.717">€</text>
	</g>
	<g>
		<g>
			<g>
				<path fill="#FAD940" d="M514.742,346.661c-20.37,10.093-62.586,17.047-111.529,17.047c-46.73,0-87.306-6.297-108.64-15.631
					v26.277c21.376,9.344,61.973,15.611,108.64,15.611c48.902,0,91.139-6.934,111.529-17.006V346.661z"/>
				<path fill="#FAD940" d="M514.721,345.657c0,10.584-49.087,19.18-109.621,19.18c-60.617,0-109.685-8.596-109.685-19.18
					c0-10.605,49.088-19.191,109.685-19.191C465.634,326.466,514.721,335.052,514.721,345.657z"/>
			</g>
			<path fill="#F8B905" d="M514.742,319.154c-20.37,10.092-62.586,17.046-111.529,17.046c-46.73,0-87.306-6.308-108.64-15.631
				v26.256c21.376,9.365,61.973,15.632,108.64,15.632c48.902,0,91.139-6.934,111.529-16.985V319.154z"/>
			<path fill="#FAD940" d="M514.721,318.139c0,10.574-49.087,19.189-109.621,19.189c-60.617,0-109.685-8.615-109.685-19.189
				c0-10.605,49.088-19.211,109.685-19.211C465.634,298.928,514.721,307.533,514.721,318.139z"/>
			<path fill="#F8B905" d="M514.742,291.625c-20.37,10.113-62.586,17.046-111.529,17.046c-46.73,0-87.306-6.338-108.64-15.642
				v26.278c21.376,9.322,61.973,15.601,108.64,15.601c48.902,0,91.139-6.935,111.529-16.985V291.625z"/>
			<path fill="#FAD940" d="M514.721,290.599c0,10.606-49.087,19.201-109.621,19.201c-60.617,0-109.685-8.595-109.685-19.201
				c0-10.584,49.088-19.18,109.685-19.18C465.634,271.419,514.721,280.015,514.721,290.599z"/>
			<path fill="#F8B905" d="M514.742,264.117c-20.37,10.092-62.586,17.046-111.529,17.046c-46.73,0-87.306-6.339-108.64-15.652
				v26.258c21.376,9.354,61.973,15.631,108.64,15.631c48.902,0,91.139-6.923,111.529-16.985V264.117z"/>
			<path fill="#FAD940" d="M514.721,263.091c0,10.584-49.087,19.19-109.621,19.19c-60.617,0-109.685-8.606-109.685-19.19
				c0-10.595,49.088-19.18,109.685-19.18C465.634,243.891,514.721,252.496,514.721,263.091z"/>
			<path fill="#F8B905" d="M514.742,236.619c-20.37,10.062-62.586,17.035-111.529,17.035c-46.73,0-87.306-6.317-108.64-15.66v26.267
				c21.376,9.354,61.973,15.651,108.64,15.651c48.902,0,91.139-6.943,111.529-17.005V236.619z"/>
			<path fill="#FAD940" d="M514.721,235.582c0,10.627-49.087,19.181-109.621,19.181c-60.617,0-109.685-8.554-109.685-19.181
				c0-10.584,49.088-19.221,109.685-19.221C465.634,216.361,514.721,224.998,514.721,235.582z"/>
			<path fill="#F8B905" d="M514.742,209.091c-20.37,10.091-62.586,17.045-111.529,17.045c-46.73,0-87.306-6.308-108.64-15.661
				v26.278c21.376,9.332,61.973,15.619,108.64,15.619c48.902,0,91.139-6.923,111.529-16.994V209.091z"/>
			<path fill="#FAD940" d="M514.721,208.054c0,10.596-49.087,19.181-109.621,19.181c-60.617,0-109.685-8.585-109.685-19.181
				c0-10.584,49.088-19.18,109.685-19.18C465.634,188.874,514.721,197.47,514.721,208.054z"/>
			<path fill="#F8B905" d="M514.742,181.561c-20.37,10.094-62.586,17.057-111.529,17.057c-46.73,0-87.306-6.317-108.64-15.65v26.256
				c21.376,9.354,61.973,15.642,108.64,15.642c48.902,0,91.139-6.934,111.529-17.005V181.561z"/>
			<path fill="#FAD940" d="M514.721,180.525c0,10.604-49.087,19.2-109.621,19.2c-60.617,0-109.685-8.596-109.685-19.2
				c0-10.585,49.088-19.19,109.685-19.19C465.634,161.335,514.721,169.94,514.721,180.525z"/>
			<path fill="#F8B905" d="M514.742,151.562c-20.37,10.093-62.586,17.025-111.529,17.025c-46.73,0-87.306-6.318-108.64-15.651
				v26.278c21.376,9.374,61.973,15.63,108.64,15.63c48.902,0,91.139-6.934,111.529-17.006V151.562z"/>
			<path fill="#FAD940" d="M514.721,150.524c0,10.595-49.087,19.201-109.621,19.201c-60.617,0-109.685-8.606-109.685-19.201
				c0-10.594,49.088-19.189,109.685-19.189C465.634,131.335,514.721,139.931,514.721,150.524z"/>
			<path fill="#F8B905" d="M514.742,124.012c-20.37,10.113-62.586,17.066-111.529,17.066c-46.73,0-87.306-6.338-108.64-15.671
				v26.308c21.376,9.312,61.973,15.601,108.64,15.601c48.902,0,91.139-6.935,111.529-17.006V124.012z"/>
			<path fill="#FAD940" d="M514.721,123.006c0,10.605-49.087,19.18-109.621,19.18c-60.617,0-109.685-8.574-109.685-19.18
				c0-10.594,49.088-19.2,109.685-19.2C465.634,103.806,514.721,112.412,514.721,123.006z"/>
			<path fill="#F8B905" d="M514.742,96.504c-20.37,10.092-62.586,17.045-111.529,17.045c-46.73,0-87.306-6.327-108.64-15.64v26.257
				c21.376,9.363,61.973,15.641,108.64,15.641c48.902,0,91.139-6.934,111.529-16.995V96.504z"/>
			<path fill="#FAD940" d="M514.721,95.499c0,10.583-49.087,19.17-109.621,19.17c-60.617,0-109.685-8.587-109.685-19.17
				c0-10.605,49.088-19.202,109.685-19.202C465.634,76.297,514.721,84.894,514.721,95.499z"/>
			<path fill="#F8B905" d="M514.742,69.005c-20.37,10.071-62.586,17.037-111.529,17.037c-46.73,0-87.306-6.319-108.64-15.652v26.278
				c21.376,9.334,61.973,15.61,108.64,15.61c48.902,0,91.139-6.923,111.529-16.985V69.005z"/>
			<path fill="#FAD940" d="M514.721,67.97c0,10.626-49.087,19.2-109.621,19.2c-60.617,0-109.685-8.574-109.685-19.2
				c0-10.585,49.088-19.201,109.685-19.201C465.634,48.749,514.721,57.385,514.721,67.97z"/>
			<path fill="#F8B905" d="M514.742,41.487c-20.37,10.072-62.586,17.035-111.529,17.035c-46.73,0-87.306-6.308-108.64-15.661v26.277
				c21.376,9.333,61.973,15.631,108.64,15.631c48.902,0,91.139-6.933,111.529-17.005V41.487z"/>
			<path fill="#FAD940" d="M514.721,40.44c0,10.595-49.087,19.18-109.621,19.18c-60.617,0-109.685-8.595-109.685-19.18
				c0-10.58,49.088-19.185,109.685-19.185C465.634,21.256,514.721,29.871,514.721,40.44z"/>
			<path fill="#F8B905" d="M514.742,13.979c-20.37,10.062-62.586,17.037-111.529,17.037c-46.73,0-87.306-6.324-108.64-15.657v26.272
				c21.376,9.334,61.973,15.631,108.64,15.631c48.902,0,91.139-6.943,111.529-17.016V13.979z"/>
			<path fill="#FAD940" d="M514.721,12.917c0,10.601-49.087,19.195-109.621,19.195c-60.617,0-109.685-8.574-109.685-19.195
				c0-10.585,49.088-19.195,109.685-19.195C465.634-6.278,514.721,2.332,514.721,12.917z"/>
			<path fill="#F8B905" d="M494.742-13.561C474.352-3.473,432.157,3.507,383.17,3.507c-46.688,0-87.263-6.323-108.617-15.667v26.267
				c21.396,9.323,62.011,15.615,108.617,15.615c48.924,0,91.161-6.928,111.572-16.989V-13.561z"/>
			<path fill="#FAD940" d="M385.059-33.775c60.543,0,109.631,8.589,109.631,19.189c0,10.596-49.088,19.185-109.631,19.185
				c-60.555,0-109.644-8.589-109.644-19.185C275.415-25.187,324.504-33.775,385.059-33.775z"/>
			<path fill="#F8B905" d="M244.398,572.317c-20.39,10.093-62.606,17.056-111.571,17.056c-46.709,0-87.288-6.317-108.606-15.651
				v26.258c21.374,9.354,61.958,15.63,108.606,15.63c48.924,0,91.161-6.934,111.571-16.995V572.317z"/>
			<path fill="#FAD940" d="M134.714,552.112c60.556,0,109.645,8.584,109.645,19.189c0,10.595-49.089,19.181-109.645,19.181
				c-60.544,0-109.63-8.586-109.63-19.181C25.083,560.696,74.17,552.112,134.714,552.112z"/>
			<path fill="#F8B905" d="M224.357,544.809c-20.35,10.092-62.564,17.037-111.552,17.037c-46.692,0-87.283-6.318-108.569-15.631
				v26.257c21.379,9.354,61.965,15.641,108.569,15.641c48.926,0,91.191-6.943,111.552-17.005V544.809L224.357,544.809z"/>
			<path fill="#FAD940" d="M114.694,524.583c60.555,0,109.643,8.585,109.643,19.189c0,10.595-49.088,19.181-109.643,19.181
				c-60.54,0-109.623-8.586-109.623-19.181C5.072,533.168,54.154,524.583,114.694,524.583z"/>
			<path fill="#F8B905" d="M224.357,517.312c-20.35,10.092-62.564,17.025-111.552,17.025c-46.692,0-87.283-6.298-108.569-15.651
				v26.276c21.379,9.354,61.965,15.61,108.569,15.61c48.926,0,91.191-6.933,111.552-16.984V517.312L224.357,517.312z"/>
			<path fill="#FAD940" d="M114.694,497.064c60.555,0,109.643,8.595,109.643,19.2s-49.088,19.2-109.643,19.2
				c-60.54,0-109.623-8.595-109.623-19.2S54.154,497.064,114.694,497.064z"/>
			<path fill="#F8B905" d="M224.357,489.782c-20.35,10.072-62.564,17.046-111.552,17.046c-46.692,0-87.283-6.317-108.569-15.65
				v26.256c21.379,9.365,61.965,15.652,108.569,15.652c48.926,0,91.191-6.935,111.552-17.006V489.782L224.357,489.782z"/>
			<path fill="#FAD940" d="M114.694,469.566c60.555,0,109.643,8.585,109.643,19.18s-49.088,19.18-109.643,19.18
				c-60.54,0-109.623-8.585-109.623-19.18S54.154,469.566,114.694,469.566z"/>
			<path fill="#F8B905" d="M224.357,462.274c-20.35,10.051-62.564,17.025-111.552,17.025c-46.692,0-87.283-6.339-108.569-15.651
				v26.256c21.379,9.345,61.965,15.632,108.569,15.632c48.926,0,91.191-6.934,111.552-16.985V462.274L224.357,462.274z"/>
			<path fill="#FAD940" d="M114.694,442.007c60.555,0,109.643,8.595,109.643,19.211c0,10.615-49.088,19.211-109.643,19.211
				c-60.54,0-109.623-8.596-109.623-19.211C5.072,450.602,54.154,442.007,114.694,442.007z"/>
			<path fill="#F8B905" d="M224.357,434.725c-20.35,10.092-62.564,17.047-111.552,17.047c-46.692,0-87.283-6.328-108.569-15.631
				v26.257c21.379,9.343,61.965,15.61,108.569,15.61c48.926,0,91.191-6.913,111.552-16.985V434.725L224.357,434.725z"/>
			<path fill="#FAD940" d="M114.694,414.519c60.555,0,109.643,8.585,109.643,19.181c0,10.604-49.088,19.189-109.643,19.189
				c-60.54,0-109.623-8.585-109.623-19.189C5.072,423.104,54.154,414.519,114.694,414.519z"/>
			<path fill="#F8B905" d="M224.357,407.217c-20.35,10.092-62.564,17.025-111.552,17.025c-46.692,0-87.283-6.338-108.569-15.631
				v26.268c21.379,9.343,61.965,15.641,108.569,15.641c48.926,0,91.191-6.933,111.552-17.025V407.217L224.357,407.217z"/>
			<path fill="#FAD940" d="M114.694,387.011c60.555,0,109.643,8.596,109.643,19.2c0,10.586-49.088,19.18-109.643,19.18
				c-60.54,0-109.623-8.594-109.623-19.18C5.072,395.606,54.154,387.011,114.694,387.011z"/>
			<path fill="#F8B905" d="M224.357,379.718c-20.35,10.083-62.564,17.037-111.552,17.037c-46.692,0-87.283-6.318-108.569-15.672
				v26.287c21.379,9.344,61.965,15.602,108.569,15.602c48.926,0,91.191-6.934,111.552-16.965V379.718L224.357,379.718z"/>
			<path fill="#FAD940" d="M224.337,378.663c0,10.604-49.067,19.199-109.623,19.199c-60.581,0-109.652-8.595-109.652-19.199
				c0-10.565,49.082-19.181,109.652-19.181C175.27,359.462,224.337,368.098,224.337,378.663z"/>
			<path fill="#F8B905" d="M224.357,352.189c-20.35,10.072-62.564,17.026-111.552,17.026c-46.692,0-87.283-6.308-108.569-15.642
				v26.268c21.379,9.345,61.965,15.642,108.569,15.642c48.926,0,91.191-6.943,111.552-17.017V352.189L224.357,352.189z"/>
			<path fill="#FAD940" d="M114.694,331.984c60.555,0,109.643,8.584,109.643,19.17c0,10.605-49.088,19.18-109.643,19.18
				c-60.54,0-109.623-8.574-109.623-19.18C5.072,340.568,54.154,331.984,114.694,331.984z"/>
			<path fill="#F8B905" d="M204.337,324.671c-20.37,10.083-62.565,17.047-111.51,17.047c-46.718,0-87.29-6.318-108.643-15.631
				v26.236c21.406,9.354,61.985,15.641,108.643,15.641c48.902,0,91.14-6.942,111.51-16.994V324.671z"/>
			<path fill="#FAD940" d="M204.337,323.625c0,10.596-49.109,19.2-109.633,19.2c-60.61,0-109.678-8.604-109.678-19.2
				c0-10.585,49.078-19.189,109.678-19.189C155.228,304.436,204.337,313.04,204.337,323.625z"/>
			<path fill="#F8B905" d="M184.357,297.143c-20.41,10.113-62.607,17.057-111.551,17.057c-46.729,0-87.278-6.328-108.637-15.641
				v26.257c21.39,9.354,61.975,15.609,108.637,15.609c48.904,0,91.141-6.912,111.551-16.983V297.143z"/>
			<path fill="#FAD940" d="M184.338,296.117c0,10.596-49.09,19.2-109.625,19.2c-60.616,0-109.729-8.604-109.729-19.2
				c0-10.585,49.112-19.18,109.729-19.18C135.248,276.938,184.338,285.532,184.338,296.117z"/>
			<path fill="#F8B905" d="M709.883,541.824c-20.39,10.071-62.605,17.026-111.549,17.026c-46.709,0-87.283-6.317-108.617-15.652
				v26.258c21.374,9.374,61.969,15.631,108.617,15.631c48.924,0,91.14-6.934,111.549-16.985V541.824z"/>
			<path fill="#FAD940" d="M709.883,540.769c0,10.594-49.127,19.189-109.662,19.189c-60.576,0-109.684-8.596-109.684-19.189
				c0-10.595,49.139-19.191,109.684-19.191C660.756,521.577,709.883,530.174,709.883,540.769z"/>
			<path fill="#F8B905" d="M709.883,514.275c-20.39,10.112-62.605,17.047-111.549,17.047c-46.709,0-87.283-6.309-108.617-15.652
				v26.277c21.374,9.364,61.969,15.63,108.617,15.63c48.924,0,91.14-6.933,111.549-17.005V514.275z"/>
			<path fill="#FAD940" d="M709.883,513.239c0,10.604-49.127,19.211-109.662,19.211c-60.576,0-109.684-8.606-109.684-19.211
				c0-10.575,49.139-19.169,109.684-19.169C660.756,494.07,709.883,502.664,709.883,513.239z"/>
			<path fill="#F8B905" d="M709.883,486.766c-20.39,10.094-62.605,17.048-111.549,17.048c-46.709,0-87.283-6.318-108.617-15.651
				v26.256c21.374,9.375,61.969,15.651,108.617,15.651c48.924,0,91.14-6.933,111.549-17.005V486.766z"/>
			<path fill="#FAD940" d="M709.883,485.731c0,10.595-49.127,19.189-109.662,19.189c-60.576,0-109.684-8.595-109.684-19.189
				c0-10.596,49.139-19.19,109.684-19.19C660.756,466.541,709.883,475.136,709.883,485.731z"/>
			<path fill="#F8B905" d="M709.883,459.238c-20.39,10.092-62.605,17.047-111.549,17.047c-46.709,0-87.283-6.329-108.617-15.652
				v26.288c21.374,9.313,61.969,15.601,108.617,15.601c48.924,0,91.14-6.914,111.549-16.985V459.238z"/>
			<path fill="#FAD940" d="M709.883,458.213c0,10.604-49.127,19.189-109.662,19.189c-60.576,0-109.684-8.585-109.684-19.189
				c0-10.585,49.139-19.181,109.684-19.181C660.756,439.032,709.883,447.628,709.883,458.213z"/>
			<path fill="#F8B905" d="M709.883,431.73c-20.39,10.071-62.605,17.046-111.549,17.046c-46.709,0-87.283-6.338-108.617-15.661
				v26.277c21.374,9.343,61.969,15.62,108.617,15.62c48.924,0,91.14-6.923,111.549-17.006V431.73z"/>
			<path fill="#FAD940" d="M709.883,430.704c0,10.585-49.127,19.17-109.662,19.17c-60.576,0-109.684-8.585-109.684-19.17
				c0-10.605,49.139-19.181,109.684-19.181C660.756,411.523,709.883,420.099,709.883,430.704z"/>
			<path fill="#F8B905" d="M709.883,404.222c-20.39,10.071-62.605,17.036-111.549,17.036c-46.709,0-87.283-6.328-108.617-15.651
				v26.256c21.374,9.365,61.969,15.652,108.617,15.652c48.924,0,91.14-6.944,111.549-17.016V404.222z"/>
			<path fill="#FAD940" d="M709.883,403.176c0,10.605-49.127,19.2-109.662,19.2c-60.576,0-109.684-8.595-109.684-19.2
				c0-10.585,49.139-19.2,109.684-19.2C660.756,383.976,709.883,392.591,709.883,403.176z"/>
			<path fill="#F8B905" d="M709.883,376.703c-20.39,10.083-62.605,17.037-111.549,17.037c-46.709,0-87.283-6.318-108.617-15.673
				v26.298c21.374,9.333,61.969,15.611,108.617,15.611c48.924,0,91.14-6.934,111.549-16.995V376.703z"/>
			<path fill="#FAD940" d="M709.883,375.646c0,10.605-49.127,19.201-109.662,19.201c-60.576,0-109.684-8.596-109.684-19.201
				c0-10.584,49.139-19.18,109.684-19.18C660.756,356.467,709.883,365.083,709.883,375.646z"/>
			<path fill="#F8B905" d="M709.883,349.175c-20.39,10.082-62.605,17.047-111.549,17.047c-46.709,0-87.283-6.309-108.617-15.663
				v26.278c21.374,9.354,61.969,15.641,108.617,15.641c48.924,0,91.14-6.933,111.549-17.025V349.175z"/>
			<path fill="#FAD940" d="M709.883,348.138c0,10.597-49.127,19.181-109.662,19.181c-60.576,0-109.684-8.584-109.684-19.181
				c0-10.604,49.139-19.199,109.684-19.199C660.756,328.938,709.883,337.533,709.883,348.138z"/>
			<path fill="#F8B905" d="M709.883,321.666c-20.39,10.103-62.605,17.047-111.549,17.047c-46.709,0-87.283-6.328-108.617-15.662
				v26.277c21.374,9.354,61.969,15.631,108.617,15.631c48.924,0,91.14-6.954,111.549-17.005V321.666z"/>
			<path fill="#FAD940" d="M709.883,320.631c0,10.595-49.127,19.18-109.662,19.18c-60.576,0-109.684-8.585-109.684-19.18
				c0-10.605,49.139-19.201,109.684-19.201C660.756,301.43,709.883,310.025,709.883,320.631z"/>
			<path fill="#F8B905" d="M689.863,294.128c-20.39,10.112-62.607,17.066-111.53,17.066c-46.708,0-87.284-6.318-108.638-15.651
				V321.8c21.354,9.375,61.949,15.652,108.638,15.652c48.903,0,91.141-6.954,111.53-17.027V294.128z"/>
			<path fill="#FAD940" d="M689.863,293.111c0,10.606-49.109,19.181-109.643,19.181c-60.596,0-109.674-8.574-109.674-19.181
				c0-10.595,49.107-19.189,109.674-19.189C640.754,273.922,689.863,282.517,689.863,293.111z"/>
			<path fill="#F8B905" d="M709.883,266.641c-20.39,10.071-62.605,17.024-111.549,17.024c-46.709,0-87.283-6.317-108.617-15.631
				v26.258c21.374,9.364,61.969,15.631,108.617,15.631c48.924,0,91.14-6.934,111.549-17.026V266.641z"/>
			<path fill="#FAD940" d="M709.883,265.594c0,10.584-49.127,19.189-109.662,19.189c-60.576,0-109.684-8.605-109.684-19.189
				c0-10.596,49.139-19.199,109.684-19.199C660.756,246.395,709.883,254.998,709.883,265.594z"/>
			<path fill="#F8B905" d="M709.883,239.111c-20.39,10.072-62.605,17.046-111.549,17.046c-46.709,0-87.283-6.349-108.617-15.671
				v26.276c21.374,9.334,61.969,15.61,108.617,15.61c48.924,0,91.14-6.913,111.549-16.984V239.111z"/>
			<path fill="#FAD940" d="M709.883,238.064c0,10.605-49.127,19.211-109.662,19.211c-60.576,0-109.684-8.605-109.684-19.211
				c0-10.585,49.139-19.179,109.684-19.179C660.756,218.886,709.883,227.479,709.883,238.064z"/>
			<path fill="#F8B905" d="M709.883,211.583c-20.39,10.071-62.605,17.025-111.549,17.025c-46.709,0-87.283-6.309-108.617-15.641
				v26.266c21.374,9.344,61.969,15.631,108.617,15.631c48.924,0,91.14-6.911,111.549-17.004V211.583z"/>
			<path fill="#FAD940" d="M709.883,210.577c0,10.585-49.127,19.181-109.662,19.181c-60.576,0-109.684-8.596-109.684-19.181
				c0-10.596,49.139-19.2,109.684-19.2C660.756,191.377,709.883,199.981,709.883,210.577z"/>
			<path fill="#F8B905" d="M709.883,184.054c-20.39,10.104-62.605,17.067-111.549,17.067c-46.709,0-87.283-6.317-108.617-15.643
				v26.248c21.374,9.354,61.969,15.651,108.617,15.651c48.924,0,91.14-6.944,111.549-17.006V184.054z"/>
			<path fill="#FAD940" d="M709.883,183.049c0,10.584-49.127,19.2-109.662,19.2c-60.576,0-109.684-8.616-109.684-19.2
				c0-10.605,49.139-19.2,109.684-19.2C660.756,163.827,709.883,172.443,709.883,183.049z"/>
			<path fill="#F8B905" d="M709.883,156.556c-20.39,10.103-62.605,17.047-111.549,17.047c-46.709,0-87.283-6.308-108.617-15.672
				v26.287c21.374,9.334,61.969,15.621,108.617,15.621c48.924,0,91.14-6.934,111.549-16.996V156.556z"/>
			<path fill="#FAD940" d="M709.883,155.521c0,10.604-49.127,19.2-109.662,19.2c-60.576,0-109.684-8.596-109.684-19.2
				c0-10.605,49.139-19.18,109.684-19.18C660.756,136.341,709.883,144.935,709.883,155.521z"/>
			<path fill="#F8B905" d="M709.883,129.037c-20.39,10.083-62.605,17.037-111.549,17.037c-46.709,0-87.283-6.308-108.617-15.642
				v26.256c21.374,9.354,61.969,15.642,108.617,15.642c48.924,0,91.14-6.933,111.549-17.006V129.037z"/>
			<path fill="#FAD940" d="M709.883,127.992c0,10.594-49.127,19.199-109.662,19.199c-60.576,0-109.684-8.605-109.684-19.199
				c0-10.586,49.139-19.18,109.684-19.18C660.756,108.812,709.883,117.406,709.883,127.992z"/>
			<g>
				<path fill="#F8B905" d="M729.905,101.539c-20.369,10.062-62.585,17.026-111.571,17.026c-46.688,0-87.304-6.329-108.617-15.662
					v26.277c21.396,9.334,61.96,15.631,108.617,15.631c48.924,0,91.139-6.953,111.571-17.016V101.539z"/>
				<path fill="#FAD940" d="M620.211,81.304c60.555,0,109.652,8.594,109.652,19.189c0,10.595-49.098,19.189-109.652,19.189
					c-60.564,0-109.654-8.595-109.654-19.189C510.557,89.897,559.646,81.304,620.211,81.304z"/>
			</g>
			<path fill="#F8B905" d="M453.019,505.967c-20.37,10.072-62.585,17.026-111.531,17.026c-46.707,0-87.304-6.317-108.617-15.672
				v26.297c21.396,9.345,61.991,15.632,108.617,15.632c48.904,0,91.141-6.975,111.531-17.005V505.967z"/>
			<path fill="#FAD940" d="M453.019,504.89c0,10.637-49.109,19.221-109.643,19.221c-60.596,0-109.666-8.584-109.666-19.221
				c0-10.574,49.1-19.158,109.666-19.158C403.909,485.731,453.019,494.315,453.019,504.89z"/>
			<path fill="#F8B905" d="M453.019,478.418c-20.37,10.072-62.585,17.046-111.531,17.046c-46.707,0-87.304-6.308-108.617-15.651
				v26.298c21.396,9.344,61.991,15.632,108.617,15.632c48.904,0,91.141-6.954,111.531-17.026V478.418z"/>
			<path fill="#FAD940" d="M453.019,477.383c0,10.635-49.109,19.189-109.643,19.189c-60.596,0-109.666-8.555-109.666-19.189
				c0-10.586,49.1-19.17,109.666-19.17C403.909,458.213,453.019,466.797,453.019,477.383z"/>
			<path fill="#F8B905" d="M453.019,450.889c-20.37,10.093-62.585,17.067-111.531,17.067c-46.707,0-87.304-6.339-108.617-15.632
				v26.269c21.396,9.333,61.991,15.6,108.617,15.6c48.904,0,91.141-6.954,111.531-16.984V450.889z"/>
			<path fill="#FAD940" d="M453.019,449.874c0,10.615-49.109,19.189-109.643,19.189c-60.596,0-109.666-8.574-109.666-19.189
				c0-10.595,49.1-19.17,109.666-19.17C403.909,430.704,453.019,439.279,453.019,449.874z"/>
			<path fill="#F8B905" d="M453.019,423.381c-20.37,10.093-62.585,17.047-111.531,17.047c-46.707,0-87.304-6.35-108.617-15.662
				v26.298c21.396,9.323,61.991,15.642,108.617,15.642c48.904,0,91.141-6.975,111.531-17.026V423.381z"/>
			<path fill="#FAD940" d="M453.019,422.336c0,10.624-49.109,19.199-109.643,19.199c-60.596,0-109.666-8.575-109.666-19.199
				c0-10.565,49.1-19.16,109.666-19.16C403.909,403.176,453.019,411.771,453.019,422.336z"/>
			<path fill="#F8B905" d="M453.019,395.873c-20.37,10.082-62.585,17.005-111.531,17.005c-46.707,0-87.304-6.317-108.617-15.62
				v26.288c21.396,9.332,61.991,15.63,108.617,15.63c48.904,0,91.141-6.964,111.531-17.035V395.873z"/>
			<path fill="#FAD940" d="M453.019,394.848c0,10.605-49.109,19.18-109.643,19.18c-60.596,0-109.666-8.574-109.666-19.18
				c0-10.616,49.1-19.18,109.666-19.18C403.909,375.646,453.019,384.231,453.019,394.848z"/>
			<path fill="#F8B905" d="M453.019,368.364c-20.37,10.062-62.585,17.026-111.531,17.026c-46.707,0-87.304-6.319-108.617-15.651
				v26.298c21.396,9.312,61.991,15.63,108.617,15.63c48.904,0,91.141-6.974,111.531-17.025V368.364z"/>
			<path fill="#FAD940" d="M453.019,367.318c0,10.626-49.109,19.18-109.643,19.18c-60.596,0-109.666-8.554-109.666-19.18
				c0-10.605,49.1-19.181,109.666-19.181C403.909,348.138,453.019,356.734,453.019,367.318z"/>
			<path fill="#F8B905" d="M473.038,340.836c-20.37,10.093-62.585,17.025-111.551,17.025c-46.707,0-87.304-6.297-108.597-15.641
				v26.287c21.375,9.334,61.919,15.642,108.597,15.642c48.926,0,91.141-6.963,111.551-17.026V340.836L473.038,340.836z"/>
			<path fill="#FAD940" d="M473.019,339.79c0,10.625-49.067,19.2-109.633,19.2c-60.606,0-109.653-8.575-109.653-19.2
				c0-10.585,49.067-19.159,109.653-19.159C423.951,320.631,473.019,329.226,473.019,339.79z"/>
			<path fill="#F8B905" d="M453.019,313.317c-20.37,10.072-62.585,17.037-111.531,17.037c-46.707,0-87.304-6.318-108.617-15.632
				v26.257c21.396,9.375,61.991,15.651,108.617,15.651c48.904,0,91.141-6.953,111.531-17.026V313.317z"/>
			<path fill="#FAD940" d="M453.019,312.282c0,10.625-49.109,19.18-109.643,19.18c-60.596,0-109.666-8.555-109.666-19.18
				c0-10.606,49.1-19.171,109.666-19.171C403.909,293.111,453.019,301.676,453.019,312.282z"/>
			<path fill="#F8B905" d="M453.019,285.799c-20.37,10.093-62.585,17.067-111.531,17.067c-46.707,0-87.304-6.329-108.617-15.693
				v26.319c21.396,9.322,61.991,15.63,108.617,15.63c48.904,0,91.141-6.973,111.531-17.024V285.799z"/>
			<path fill="#FAD940" d="M453.019,284.753c0,10.625-49.109,19.221-109.643,19.221c-60.596,0-109.666-8.596-109.666-19.221
				c0-10.563,49.1-19.159,109.666-19.159C403.909,265.594,453.019,274.189,453.019,284.753z"/>
			<path fill="#F8B905" d="M453.019,258.291c-20.37,10.071-62.585,17.025-111.531,17.025c-46.707,0-87.304-6.298-108.617-15.651
				v26.277c21.396,9.375,61.991,15.672,108.617,15.672c48.904,0,91.141-6.953,111.531-17.046V258.291z"/>
			<path fill="#FAD940" d="M453.019,257.245c0,10.626-49.109,19.189-109.643,19.189c-60.596,0-109.666-8.563-109.666-19.189
				c0-10.586,49.1-19.181,109.666-19.181C403.909,238.064,453.019,246.659,453.019,257.245z"/>
			<path fill="#F8B905" d="M433.019,230.763c-20.391,10.071-62.587,17.066-111.551,17.066c-46.709,0-87.283-6.339-108.617-15.672
				v26.309c21.374,9.312,61.989,15.6,108.617,15.6c48.924,0,91.16-6.953,111.551-17.025V230.763z"/>
			<path fill="#FAD940" d="M433.019,229.736c0,10.626-49.13,19.19-109.645,19.19c-60.596,0-109.653-8.564-109.653-19.19
				c0-10.605,49.088-19.159,109.653-19.159C383.889,210.577,433.019,219.131,433.019,229.736z"/>
			<path fill="#F8B905" d="M579.81,582.666c-20.37,10.093-62.605,17.046-111.571,17.046c-46.687,0-87.304-6.349-108.597-15.661
				v26.287c21.323,9.323,61.939,15.61,108.597,15.61c48.924,0,91.161-6.933,111.571-17.005V582.666z"/>
			<path fill="#FAD940" d="M470.116,562.44c60.554,0,109.653,8.584,109.653,19.181c0,10.604-49.1,19.189-109.653,19.189
				c-60.565,0-109.652-8.586-109.652-19.189C360.464,571.024,409.551,562.44,470.116,562.44z"/>
			<path fill="#F8B905" d="M579.81,555.137c-20.37,10.104-62.605,17.048-111.571,17.048c-46.687,0-87.304-6.349-108.597-15.663
				v26.319c21.323,9.303,61.939,15.6,108.597,15.6c48.924,0,91.161-6.933,111.571-17.004V555.137z"/>
			<path fill="#FAD940" d="M579.77,554.09c0,10.646-49.09,19.191-109.622,19.191c-60.597,0-109.645-8.545-109.645-19.191
				c0-10.573,49.088-19.158,109.645-19.158C530.68,534.932,579.77,543.517,579.77,554.09z"/>
			<path fill="#F8B905" d="M579.81,527.649c-20.37,10.071-62.605,17.035-111.571,17.035c-46.687,0-87.304-6.348-108.597-15.682
				v26.318c21.323,9.293,61.939,15.622,108.597,15.622c48.924,0,91.161-6.965,111.571-17.058V527.649z"/>
			<path fill="#FAD940" d="M579.77,526.583c0,10.667-49.09,19.2-109.622,19.2c-60.597,0-109.645-8.533-109.645-19.2
				c0-10.605,49.088-19.119,109.645-19.119C530.68,507.423,579.77,515.978,579.77,526.583z"/>
			<path fill="#F8B905" d="M579.81,500.11c-20.37,10.093-62.605,17.047-111.571,17.047c-46.687,0-87.304-6.328-108.597-15.673
				v26.288c21.323,9.334,61.939,15.632,108.597,15.632c48.924,0,91.161-6.923,111.571-17.016V500.11z"/>
			<path fill="#FAD940" d="M579.77,499.054c0,10.636-49.09,19.2-109.622,19.2c-60.597,0-109.645-8.564-109.645-19.2
				c0-10.585,49.088-19.139,109.645-19.139C530.68,479.915,579.77,488.469,579.77,499.054z"/>
			<path fill="#F8B905" d="M579.81,472.603c-20.37,10.082-62.605,17.047-111.571,17.047c-46.687,0-87.304-6.328-108.597-15.693
				v26.329c21.323,9.293,61.939,15.601,108.597,15.601c48.924,0,91.161-6.924,111.571-17.026V472.603z"/>
			<path fill="#FAD940" d="M579.77,471.525c0,10.646-49.09,19.201-109.622,19.201c-60.597,0-109.645-8.555-109.645-19.201
				c0-10.585,49.088-19.129,109.645-19.129C530.68,452.396,579.77,460.961,579.77,471.525z"/>
			<path fill="#F8B905" d="M579.81,445.104c-20.37,10.071-62.605,17.026-111.571,17.026c-46.687,0-87.304-6.339-108.597-15.673
				v26.319c21.323,9.322,61.939,15.59,108.597,15.59c48.924,0,91.161-6.933,111.571-17.006V445.104z"/>
			<path fill="#FAD940" d="M579.77,444.027c0,10.646-49.09,19.17-109.622,19.17c-60.597,0-109.645-8.534-109.645-19.17
				c0-10.615,49.088-19.149,109.645-19.149C530.68,424.878,579.77,433.412,579.77,444.027z"/>
			<path fill="#F8B905" d="M579.81,417.576c-20.37,10.071-62.605,17.025-111.571,17.025c-46.687,0-87.304-6.327-108.597-15.672
				v26.318c21.323,9.323,61.939,15.61,108.597,15.61c48.924,0,91.161-6.933,111.571-17.025V417.576z"/>
			<path fill="#FAD940" d="M470.116,397.289c60.554,0,109.653,8.595,109.653,19.21s-49.1,19.211-109.653,19.211
				c-60.565,0-109.652-8.596-109.652-19.211S409.551,397.289,470.116,397.289z"/>
			<path fill="#F8B905" d="M599.812,390.047c-20.351,10.093-62.588,17.046-111.571,17.046c-46.689,0-87.264-6.337-108.617-15.672
				v26.299c21.394,9.343,61.99,15.65,108.617,15.65c48.944,0,91.182-6.953,111.571-17.066V390.047z"/>
			<path fill="#FAD940" d="M599.789,388.991c0,10.636-49.087,19.19-109.643,19.19c-60.576,0-109.653-8.555-109.653-19.19
				c0-10.595,49.141-19.149,109.653-19.149C550.702,369.842,599.789,378.396,599.789,388.991z"/>
			<path fill="#F8B905" d="M366.861,573.97c-21.517,7.32-64.286,8.635-112.801,2.173c-46.297-6.195-85.684-17.826-105.612-29.908
				l-3.477,26.031c19.96,12.042,59.365,23.662,105.622,29.836c48.492,6.472,91.273,5.201,112.802-2.103L366.861,573.97z"/>
			<path fill="#FAD940" d="M367.006,572.942c-1.404,10.523-51.22,12.533-111.222,4.563c-60.041-8.029-107.593-23.005-106.196-33.537
				c1.394-10.493,51.24-12.483,111.304-4.493C320.862,547.444,368.4,562.461,367.006,572.942z"/>
		</g>
		<g>
			
				<linearGradient id="SVGID_1_" gradientUnits="userSpaceOnUse" x1="768.2998" y1="-947.998" x2="820.7453" y2="-1163.2983" gradientTransform="matrix(1 0 0 -1 -437.0547 -499.6406)">
				<stop  offset="0" style="stop-color:#7CC142"/>
				<stop  offset="1" style="stop-color:#165D2F"/>
			</linearGradient>
			<polygon fill="url(#SVGID_1_)" points="365.2,414.878 323.805,464.55 307.231,563.918 326.555,624.637 370.719,583.229 
				390.043,475.598 			"/>
			<polygon fill="#649C46" points="365.2,414.878 368.646,473.535 351.396,578.409 326.555,624.637 370.719,583.229 
				390.043,475.598 			"/>
			<polygon fill="#7DC256" points="368.646,473.535 323.805,464.55 307.231,563.918 351.396,578.409 			"/>
		</g>
		<g>
			<polygon fill="#E84E68" points="783.178,592.974 726.419,561.989 625.738,564.975 569.902,595.691 619.073,630.984 
				728.408,629.087 			"/>
			<polygon fill="#E84E68" points="783.178,592.974 726.295,607.714 620.076,611.097 569.902,595.691 619.073,630.984 
				728.408,629.087 			"/>
			<polygon fill="#D0455C" points="726.295,607.714 726.419,561.989 625.738,564.975 620.076,611.097 			"/>
		</g>
		<g>
			<polygon fill="#E6E6E6" points="406.658,221.06 418.228,284.671 483.828,361.123 542.803,385.247 539.378,324.815 
				469.182,240.937 			"/>
			<polygon fill="#F2F2F2" points="406.658,221.06 453.879,256.024 523.275,336.528 542.803,385.247 539.378,324.815 
				469.182,240.937 			"/>
			<polygon fill="#CCCCCC" points="453.879,256.024 418.228,284.671 483.828,361.123 523.275,336.528 			"/>
		</g>
		<g opacity="0.5">
			<g>
				<path fill="#FFFFFF" d="M243.865,87.416l97.992-94.663C341.857-7.247,288.503,35.754,243.865,87.416z"/>
				<path fill="#FFFFFF" d="M244.892-8.949l94.667,97.985C339.559,89.036,296.564,35.682,244.892-8.949z"/>
			</g>
			<g>
				<path fill="#FFFFFF" d="M224.871,39.046l136.228,2.379C361.099,41.385,292.975,34.081,224.871,39.046z"/>
				<path fill="#FFFFFF" d="M293.733-28.355l-2.359,136.203C291.374,107.848,298.697,39.743,293.733-28.355z"/>
			</g>
		</g>
		<g opacity="0.5">
			<g>
				<path fill="#FFFFFF" d="M289.609,468.634l84.085,43.159C373.694,511.793,333.528,486.378,289.609,468.634z"/>
				<path fill="#FFFFFF" d="M353.119,447.75l-43.18,84.085C309.939,531.835,335.354,491.649,353.119,447.75z"/>
			</g>
			<g>
				<path fill="#FFFFFF" d="M317.118,445.31l28.944,90.012C346.062,535.321,335.621,488.941,317.118,445.31z"/>
				<path fill="#FFFFFF" d="M376.79,475.464l-89.97,28.944C286.82,504.408,333.181,493.966,376.79,475.464z"/>
			</g>
		</g>
		<g opacity="0.5">
			<g>
				<path fill="#FFFFFF" d="M595.052,564.697l69.23,64.37C664.282,629.067,632.51,593.712,595.052,564.697z"/>
				<path fill="#FFFFFF" d="M661.842,561.825l-64.37,69.231C597.472,631.057,632.837,599.281,661.842,561.825z"/>
			</g>
			<g>
				<path fill="#FFFFFF" d="M627.852,549.742l3.446,94.463C631.298,644.205,633.841,596.717,627.852,549.742z"/>
				<path fill="#FFFFFF" d="M677.104,594.934l-94.443,3.444C582.661,598.378,630.109,600.922,677.104,594.934z"/>
			</g>
		</g>
		<g opacity="0.5">
			<g>
				<path fill="#FFFFFF" d="M-12.739,267.051l18.741,92.637C6.001,359.688,0.8,312.445-12.739,267.051z"/>
				<path fill="#FFFFFF" d="M43.222,303.636l-92.658,18.738C-49.437,322.374-2.195,317.164,43.222,303.636z"/>
			</g>
			<g>
				<path fill="#FFFFFF" d="M22.635,274.005l-52.271,78.77C-29.626,352.774,0.107,315.666,22.635,274.005z"/>
				<path fill="#FFFFFF" d="M36.319,339.451l-78.762-52.278C-42.442,287.173-5.354,316.917,36.319,339.451z"/>
			</g>
		</g>
	</g>
</g>
</svg>
