<?xml version="1.0" encoding="utf-8"?>
<!-- Generator: Adobe Illustrator 16.0.0, SVG Export Plug-In . SVG Version: 6.00 Build 0)  -->
<!DOCTYPE svg PUBLIC "-//W3C//DTD SVG 1.1//EN" "http://www.w3.org/Graphics/SVG/1.1/DTD/svg11.dtd">
<svg version="1.1" id="Capa_1" xmlns="http://www.w3.org/2000/svg" xmlns:xlink="http://www.w3.org/1999/xlink" x="0px" y="0px"
	 width="1500px" height="1500px" viewBox="-675 -675 1500 1500" enable-background="new -675 -675 1500 1500" xml:space="preserve">
<g id="Capa_1_1_" display="none">
</g>
<g id="Capa_2">
	<g>
		<g>
			<g>
				<path fill="#00B5AE" d="M-45.886,30.955c0,0-42.894,39.078,18.101,49.535c0,0,79.097,20.959,74.33-37.155
					c0,0-8.58-33.528,65.772-29.633c0,0,142.013-21.855,82.918-59c0,0-63.877-32.407-135.333,9.496
					C-11.569,6.165-45.886,30.955-45.886,30.955z"/>
				<path fill="#00B5AE" d="M286.343-45.95c-1.007-5.296-11.687-7.727-23.812-5.44c-12.146,2.346-21.215,8.519-20.177,13.815
					c1.026,5.316,11.668,7.722,23.813,5.405C278.343-34.452,287.35-40.625,286.343-45.95z"/>
				<path fill="#00B5AE" d="M247.833-63.686c-0.797-4.01-11.289-5.201-23.395-2.689c-12.116,2.485-21.282,7.751-20.445,11.752
					c0.837,4,11.288,5.171,23.394,2.715C239.554-54.41,248.689-59.675,247.833-63.686z"/>
				<path fill="#00B5AE" d="M201.66-71.662c-0.727-3.063-8.817-3.776-18.054-1.544c-9.306,2.177-16.222,6.442-15.484,9.5
					c0.678,3.059,8.809,3.747,18.074,1.569C195.483-64.338,202.397-68.603,201.66-71.662z"/>
				<path fill="#00B5AE" d="M155.647-75.583c-0.557-2.491-7.184-3.059-14.676-1.256c-7.523,1.778-13.122,5.236-12.544,7.727
					c0.587,2.457,7.173,3.03,14.676,1.25C150.597-69.665,156.256-73.092,155.647-75.583z"/>
				<path fill="#00B5AE" d="M99.821-72.185c7.522-1.784,14.089-1.221,14.677,1.266c0.598,2.48-5.021,5.942-12.534,7.731
					c-7.523,1.784-14.089,1.216-14.688-1.265C86.688-66.934,92.298-70.396,99.821-72.185z"/>
			</g>
			<path fill="#00B5AE" d="M532.638,25.989c0,0,48.963-36.273-42.286-51.996c0,0-80.647-21.218-100.685,23.315
				c0,0-13.351,42.222-48.594,37.434c0,0-140.967-4.374-86.445,39.183c0,0,9.705,27.536,136.963,0.857
				C473.723,57.554,532.638,25.989,532.638,25.989z"/>
			<path fill="#00B5AE" d="M509.364-61.449c-0.998-5.296-11.658-7.697-23.854-5.41c-12.116,2.316-21.154,8.499-20.108,13.794
				c0.977,5.316,11.657,7.742,23.774,5.43C501.371-49.951,510.369-56.133,509.364-61.449z"/>
			<path fill="#00B5AE" d="M549.348-45.751c-0.827-3.995-10.164-5.456-20.875-3.224c-10.68,2.208-18.661,7.234-17.834,11.214
				c0.835,4.011,10.183,5.47,20.823,3.268C542.204-36.739,550.194-41.75,549.348-45.751z"/>
			<path fill="#00B5AE" d="M580.026-26.811c-0.447-3.123-8.438-4.602-17.836-3.268c-9.484,1.316-16.779,4.918-16.319,8.042
				c0.438,3.093,8.429,4.553,17.894,3.223C573.161-20.13,580.484-23.731,580.026-26.811z"/>
			<path fill="#00B5AE" d="M590.946-4.083c0-2.516-6.308-4.568-14.009-4.519c-7.731,0.031-14.008,2.123-13.959,4.694
				c0,2.55,6.286,4.573,13.998,4.523C584.7,0.615,590.967-1.497,590.946-4.083z"/>
			<path fill="#00B5AE" d="M590.927,15.825c-0.139-2.551-6.536-4.255-14.239-3.806c-7.691,0.458-13.819,2.89-13.709,5.41
				c0.13,2.571,6.536,4.255,14.237,3.806C584.928,20.777,591.096,18.376,590.927,15.825z"/>
		</g>
		<g>
			<g>
				<path fill="#00B5AE" d="M389.896-139.879c0,0-28.078,25.567,11.857,32.433c0,0,51.792,13.724,48.663-24.342
					c0,0-5.62-21.96,43.084-19.409c0,0,92.99-14.294,54.292-38.625c0,0-41.817-21.224-88.628,6.232
					C412.336-156.135,389.896-139.879,389.896-139.879z"/>
				<path fill="#00B5AE" d="M591.843-193.803c7.952-1.521,14.945,0.069,15.604,3.547c0.669,3.478-5.241,7.522-13.191,9.042
					c-7.962,1.515-14.945-0.075-15.604-3.546C577.984-188.238,583.892-192.289,591.843-193.803z"/>
				<path fill="#00B5AE" d="M582.228-201.864c-0.527-2.62-7.423-3.408-15.344-1.753c-7.881,1.634-13.898,5.081-13.361,7.691
					c0.518,2.621,7.383,3.428,15.304,1.764C576.778-195.791,582.796-199.243,582.228-201.864z"/>
				<path fill="#00B5AE" d="M540.121-208.151c6.059-1.435,11.35-0.982,11.826,1.016c0.479,1.992-4.054,4.778-10.112,6.213
					c-6.068,1.439-11.349,0.981-11.827-1.012C529.53-203.931,534.062-206.711,540.121-208.151z"/>
				<path fill="#00B5AE" d="M521.868-209.65c-0.408-1.629-4.693-1.998-9.615-0.832c-4.952,1.161-8.609,3.428-8.221,5.066
					c0.369,1.605,4.713,1.993,9.606,0.817C518.568-205.759,522.265-208.036,521.868-209.65z"/>
				<path fill="#00B5AE" d="M494.925-206.587c-0.359-1.624-4.692-2.002-9.625-0.837c-4.911,1.171-8.568,3.427-8.209,5.062
					c0.367,1.628,4.702,1.987,9.634,0.847C491.628-202.711,495.314-204.962,494.925-206.587z"/>
			</g>
			<path fill="#00B5AE" d="M768.731-143.157c0,0,32.112-23.754-27.69-34.046c0,0-52.829-13.896-65.94,15.273
				c0,0-8.708,27.65-31.824,24.537c0,0-92.284-2.885-56.594,25.651c0,0,6.336,18.019,89.674,0.553
				C730.141-122.462,768.731-143.157,768.731-143.157z"/>
			<path fill="#00B5AE" d="M737.832-204.026c7.951-1.514,14.937,0.075,15.604,3.547c0.657,3.478-5.262,7.523-13.213,9.037
				c-7.951,1.52-14.936-0.069-15.604-3.547C723.963-198.466,729.881-202.511,737.832-204.026z"/>
			<path fill="#00B5AE" d="M785.16-189.763c-0.517-2.611-6.625-3.583-13.629-2.132c-7.006,1.46-12.237,4.763-11.689,7.368
				c0.51,2.61,6.646,3.557,13.631,2.123C780.498-183.874,785.729-187.142,785.16-189.763z"/>
			<path fill="#00B5AE" d="M799.777-177.712c-0.309-2.061-5.55-2.999-11.688-2.142c-6.187,0.877-10.96,3.214-10.701,5.261
				c0.318,2.033,5.56,2.989,11.697,2.123C795.265-173.348,800.046-175.684,799.777-177.712z"/>
			<path fill="#00B5AE" d="M809.513-162.806c0-1.674-4.145-2.999-9.178-2.98c-5.07,0.011-9.155,1.386-9.155,3.06
				c0,1.664,4.125,2.99,9.206,2.979C805.407-159.767,809.553-161.151,809.513-162.806z"/>
			<path fill="#00B5AE" d="M806.9-149.787c-0.099-1.665-4.264-2.786-9.325-2.482c-5.052,0.279-9.066,1.879-8.986,3.513
				c0.099,1.694,4.324,2.806,9.325,2.521C802.977-146.535,806.991-148.124,806.9-149.787z"/>
		</g>
		<path fill="#00B5AE" d="M-641.939,271.231c0,0-44.424,40.892,7.991,59.943c0,0,63.858,31.465,100.066-43.084
			c0,0,22.857-30.18,118.216-35.949c0,0,203.65-45.854,98.129-96.47c0,0-78.227-35.352-177.49,22.876
			C-594.292,236.777-641.939,271.231-641.939,271.231z"/>
		<path fill="#00B5AE" d="M-196.807,164.41c-1.354-7.344-16.191-10.722-33.054-7.522c-16.869,3.238-29.43,11.787-28.04,19.17
			c1.44,7.384,16.252,10.721,33.11,7.522C-207.907,180.361-195.357,171.793-196.807,164.41z"/>
		<path fill="#00B5AE" d="M-227.545,135.624c-1.091-5.56-15.704-7.254-32.527-3.786c-16.793,3.487-29.518,10.822-28.368,16.371
			c1.121,5.579,15.723,7.233,32.517,3.775C-239.107,148.478-226.345,141.164-227.545,135.624z"/>
		<path fill="#00B5AE" d="M-274.799,119.254c-1.006-4.265-12.27-5.251-25.118-2.183c-12.864,3.069-22.479,8.988-21.467,13.224
			c1.001,4.233,12.255,5.229,25.107,2.141C-283.407,129.407-273.776,123.489-274.799,119.254z"/>
		<path fill="#00B5AE" d="M-350.064,114.162c9.888-4.174,19.021-4.922,20.39-1.674c1.371,3.248-5.535,9.267-15.428,13.441
			c-9.89,4.175-19.016,4.922-20.392,1.665C-366.865,124.346-359.959,118.327-350.064,114.162z"/>
		<path fill="#00B5AE" d="M-389.561,117.451c-1.66-3.149-10.712-1.604-20.191,3.427c-9.476,5.042-15.814,11.647-14.159,14.786
			c1.635,3.089,10.701,1.564,20.172-3.428C-394.254,127.176-387.886,120.568-389.561,117.451z"/>
		<path fill="#00B5AE" d="M79.919,282.869c0,0,65.646-71.839-40.035-92.783c0,0-108.661-16.858-140.116,53.088
			c0,0-39.144,68.302-94.542,60.818c0,0-186.212-24.292-135.722,61.517c0,0,11.888,41.331,211.224-11.498
			C26.188,315.491,79.919,282.869,79.919,282.869z"/>
		<path fill="#00B5AE" d="M95.396,142.161c-1.565-8.35-18.334-12.156-37.404-8.529c-19.09,3.627-33.264,13.332-31.68,21.682
			c1.601,8.33,18.364,12.136,37.394,8.488C82.812,160.156,97.001,150.49,95.396,142.161z"/>
		<path fill="#00B5AE" d="M148.104,171.873c-1.285-6.258-15.951-8.55-32.75-5.082c-16.799,3.487-29.313,11.379-28.028,17.676
			c1.285,6.248,15.952,8.51,32.722,5.052C136.836,186.062,149.412,178.17,148.104,171.873z"/>
		<path fill="#00B5AE" d="M180.487,202.571c-0.688-4.912-13.261-7.215-28.087-5.122c-14.817,2.083-26.265,7.722-25.576,12.644
			c0.686,4.833,13.25,7.135,28.046,5.063C169.677,213.062,181.136,207.464,180.487,202.571z"/>
		<path fill="#00B5AE" d="M176.055,244.758c0-3.976-9.884-7.164-22.031-7.104c-12.105,0.021-21.929,3.327-21.929,7.334
			c0.059,3.985,9.902,7.214,22.02,7.154C166.229,252.082,176.084,248.793,176.055,244.758z"/>
		<path fill="#00B5AE" d="M161.566,274.3c-0.208-4.034-10.223-6.685-22.328-5.979c-12.106,0.679-21.761,4.515-21.533,8.491
			c0.26,3.985,10.264,6.665,22.369,5.978C152.161,282.083,161.845,278.276,161.566,274.3z"/>
	</g>
</g>
</svg>
