<svg height="17.523" viewBox="0 0 17.522 17.523" width="17.522" xmlns="http://www.w3.org/2000/svg"><path d="m-3.641-7.282a8.761 8.761 0 0 1 -8.759-8.761 8.761 8.761 0 0 1 8.761-8.762 8.761 8.761 0 0 1 8.759 8.762 8.761 8.761 0 0 1 -8.761 8.761" fill="#fff" transform="translate(12.402 24.805)"/><g fill="#f38b00"><path d="m-2.035-2.837c-.528 0-1.056 0-1.584-.011q-.509-.008-1.018-.037c-.311-.018-.622-.046-.932-.073a1.515 1.515 0 0 1 -.355-.061 1.226 1.226 0 0 1 -.837-.912 4.983 4.983 0 0 1 -.117-.721c-.039-.388-.054-.776-.054-1.165s0-.76 0-1.139q.005-.473.056-.942a4.928 4.928 0 0 1 .112-.666 1.228 1.228 0 0 1 .831-.918 1.633 1.633 0 0 1 .382-.065c.188-.018.375-.035.563-.049.117-.01.234-.018.351-.023.5-.024 1-.042 1.5-.042.87 0 1.741 0 2.612.006.373 0 .747.02 1.12.04.305.016.609.045.913.072a1.653 1.653 0 0 1 .283.044 1.217 1.217 0 0 1 .888.884 3.466 3.466 0 0 1 .094.481 10 10 0 0 1 .088 1.348v1.056c0 .3-.013.592-.037.888a6.2 6.2 0 0 1 -.129.888 1.247 1.247 0 0 1 -.545.8 1.174 1.174 0 0 1 -.545.189c-.24.021-.48.045-.719.066q-.166.014-.333.021c-.472.022-.944.041-1.416.042h-1.172zm.807-4.277-.017-.008v-.99c0-.069 0-.136 0-.2a1.513 1.513 0 0 0 -.005-.198.368.368 0 0 0 -.05-.007h-.48a.337.337 0 0 0 -.057.011v4.328a.2.2 0 0 0 .007.037.163.163 0 0 0 .037.008h.509a.136.136 0 0 0 .036-.011c0-.025 0-.046 0-.067v-.074c0-.021 0-.043 0-.064a.113.113 0 0 1 .013-.075l.054.055a1.147 1.147 0 0 0 .195.17.649.649 0 0 0 .273.108.464.464 0 0 0 .513-.258.663.663 0 0 0 .069-.23c.014-.135.023-.271.034-.405 0-.034 0-.068 0-.1v-1.354a3.41 3.41 0 0 0 -.035-.516.686.686 0 0 0 -.11-.292.418.418 0 0 0 -.258-.178.6.6 0 0 0 -.422.054.947.947 0 0 0 -.247.192l-.064.064m3.367 1.454v-.1c0-.189 0-.377 0-.565 0-.074 0-.148-.008-.222a1.279 1.279 0 0 0 -.076-.371.77.77 0 0 0 -.49-.472.95.95 0 0 0 -.627 0 .784.784 0 0 0 -.527.6 1.8 1.8 0 0 0 -.044.422v1.213c0 .052 0 .105.006.158a1.355 1.355 0 0 0 .073.371.786.786 0 0 0 .505.492 1.006 1.006 0 0 0 .511.033.8.8 0 0 0 .665-.712c.013-.131.008-.265.011-.4a.3.3 0 0 0 -.008-.045.244.244 0 0 0 -.039-.006h-.518a.1.1 0 0 0 -.03.009.436.436 0 0 0 -.006.044v.138c0 .068 0 .136-.013.2a.267.267 0 0 1 -.13.213.277.277 0 0 1 -.38-.117.3.3 0 0 1 -.028-.078 1.387 1.387 0 0 1 -.025-.2c0-.182 0-.365 0-.546a.519.519 0 0 1 .008-.057h.393.379.4m-4.49-1.742c-.105 0-.2 0-.3 0s-.189-.006-.29 0v.115 2.268.074a.1.1 0 0 1 -.023.069.888.888 0 0 1 -.158.167.348.348 0 0 1 -.149.071.134.134 0 0 1 -.176-.116.82.82 0 0 1 -.011-.138c0-.182 0-.364 0-.546v-1.847a.364.364 0 0 0 -.006-.107 4.1 4.1 0 0 0 -.574 0 .156.156 0 0 0 -.011.09q0 1.241 0 2.482c0 .1 0 .191.014.286a.977.977 0 0 0 .038.189.325.325 0 0 0 .229.234.522.522 0 0 0 .238.016.767.767 0 0 0 .312-.135 1.584 1.584 0 0 0 .221-.202c.012-.012.02-.033.047-.025.013.1-.006.207.011.312a.179.179 0 0 0 .038.008h.509a.131.131 0 0 0 .035-.011zm-1.794-1.109a.288.288 0 0 0 -.107-.008h-1.834c-.018 0-.037 0-.055 0s-.035 0-.057.008c-.007.071 0 .139 0 .206s0 .129 0 .194a.774.774 0 0 0 .011.2h.094.519c.023 0 .047 0 .076.008v3.615.083a.512.512 0 0 0 .008.057c.108.006.213 0 .317 0a2.614 2.614 0 0 0 .324-.006.432.432 0 0 0 .008-.123v-3.49c0-.031 0-.062 0-.093a.521.521 0 0 1 .007-.042h.624c.023 0 .05.007.069-.014a4.85 4.85 0 0 0 0-.594" transform="translate(10.794 17.461)"/><path d="m0 0a5.947 5.947 0 0 1 .692 0c.008.021.017.05.025.079q.2.745.4 1.491a.259.259 0 0 0 .049.126c.076-.289.15-.571.223-.855s.146-.567.223-.853c.08-.006.153 0 .227 0h.213.227c-.011.04-.018.069-.026.1q-.37 1.222-.74 2.444a.646.646 0 0 0 -.028.191q0 .792 0 1.583v.1a.382.382 0 0 1 -.059.011h-.541a.382.382 0 0 1 -.059-.01c0-.036 0-.069 0-.1 0-.525 0-1.05 0-1.574a1.075 1.075 0 0 0 -.026-.248c-.084-.349-.188-.692-.3-1.03-.155-.455-.311-.899-.465-1.348-.012-.034-.022-.069-.035-.107" transform="translate(5.447 2.782)"/><path d="m-.245 0a.363.363 0 0 1 .008.112v2.268.2a.48.48 0 0 0 .011.1.134.134 0 0 0 .166.109.333.333 0 0 0 .143-.061.888.888 0 0 0 .188-.188.094.094 0 0 0 .019-.061c0-.025 0-.049 0-.074v-2.296a.34.34 0 0 1 .01-.109 4.256 4.256 0 0 1 .577 0 .442.442 0 0 1 .009.048v.064q0 1.533 0 3.065a.271.271 0 0 1 -.009.111.171.171 0 0 1 -.036.012h-.519a.114.114 0 0 1 -.029-.011c-.008-.1 0-.208-.006-.312-.019-.014-.029 0-.04.009-.068.063-.133.129-.2.188a.756.756 0 0 1 -.329.16.545.545 0 0 1 -.239 0 .332.332 0 0 1 -.257-.239.849.849 0 0 1 -.035-.172c-.009-.1-.016-.2-.017-.3q0-1.264 0-2.528c0-.03 0-.06 0-.088a4.27 4.27 0 0 1 .585-.007" transform="translate(10.834 3.905)"/><path d="m0-.727c0-.216 0-.432 0-.648a2.183 2.183 0 0 1 .033-.377.893.893 0 0 1 .206-.448.8.8 0 0 1 .478-.261.976.976 0 0 1 .422.019.784.784 0 0 1 .543.489 1.1 1.1 0 0 1 .071.305 2.775 2.775 0 0 1 .017.286v1.167a1.908 1.908 0 0 1 -.053.478.785.785 0 0 1 -.468.561.911.911 0 0 1 -.721 0 .778.778 0 0 1 -.458-.504 1.718 1.718 0 0 1 -.07-.512c0-.185 0-.37 0-.555m.6-.065v.666c0 .059 0 .117.008.176a.5.5 0 0 0 .051.186.238.238 0 0 0 .227.133.232.232 0 0 0 .224-.135.606.606 0 0 0 .035-.095.862.862 0 0 0 .023-.248q0-.675 0-1.351c0-.052 0-.1-.007-.157a.49.49 0 0 0 -.051-.183.238.238 0 0 0 -.226-.134.234.234 0 0 0 -.225.134.606.606 0 0 0 -.035.095.822.822 0 0 0 -.024.238z" transform="translate(7.739 6.332)"/><path d="m0-.061a.463.463 0 0 1 .155-.117.332.332 0 0 1 .125-.03.212.212 0 0 1 .22.128.666.666 0 0 1 .052.242v.1 1.341a1.421 1.421 0 0 1 -.017.212.483.483 0 0 1 -.047.139.2.2 0 0 1 -.213.116.4.4 0 0 1 -.259-.131.075.075 0 0 1 -.016-.039.366.366 0 0 1 0-.056z" transform="translate(9.549 10.763)"/><path d="m-.245-.308a.183.183 0 0 1 -.036.008h-.519a.1.1 0 0 1 -.026-.005.116.116 0 0 1 -.008-.027c0-.136 0-.271.009-.406a.471.471 0 0 1 .043-.162.242.242 0 0 1 .243-.15.243.243 0 0 1 .239.15.544.544 0 0 1 .042.15 3.486 3.486 0 0 1 .01.439" transform="translate(12.581 11.604)"/></g></svg>