<svg height="17.523" viewBox="0 0 17.522 17.523" width="17.522" xmlns="http://www.w3.org/2000/svg"><path d="m-3.641-7.282a8.761 8.761 0 0 1 -8.759-8.761 8.761 8.761 0 0 1 8.761-8.762 8.761 8.761 0 0 1 8.759 8.762 8.761 8.761 0 0 1 -8.761 8.761" fill="#fff" transform="translate(12.402 24.805)"/><g fill="#f38b00"><path d="m-2-.36c1.283 0 1.435 0 1.941.028a2.66 2.66 0 0 1 .892.165 1.48 1.48 0 0 1 .552.36 1.477 1.477 0 0 1 .36.552 2.66 2.66 0 0 1 .165.892c.023.507.028.658.028 1.941s0 1.435-.028 1.941a2.66 2.66 0 0 1 -.165.892 1.48 1.48 0 0 1 -.36.552 1.487 1.487 0 0 1 -.552.359 2.673 2.673 0 0 1 -.892.166c-.507.023-.658.028-1.941.028s-1.435 0-1.941-.028a2.664 2.664 0 0 1 -.892-.166 1.49 1.49 0 0 1 -.552-.359 1.488 1.488 0 0 1 -.36-.552 2.66 2.66 0 0 1 -.165-.892c-.023-.507-.028-.658-.028-1.941s0-1.435.028-1.941a2.66 2.66 0 0 1 .169-.892 1.486 1.486 0 0 1 .36-.552 1.483 1.483 0 0 1 .552-.36 2.65 2.65 0 0 1 .892-.165c.506-.023.658-.028 1.937-.028m0-.865c-1.3 0-1.468.006-1.981.029a3.525 3.525 0 0 0 -1.166.223 2.353 2.353 0 0 0 -.851.554 2.359 2.359 0 0 0 -.554.851 3.525 3.525 0 0 0 -.219 1.168c-.023.513-.029.676-.029 1.981s.006 1.468.029 1.981a3.521 3.521 0 0 0 .223 1.166 2.353 2.353 0 0 0 .554.851 2.353 2.353 0 0 0 .851.554 3.525 3.525 0 0 0 1.166.223c.513.023.676.029 1.981.029s1.468-.006 1.981-.029a3.521 3.521 0 0 0 1.165-.226 2.353 2.353 0 0 0 .85-.554 2.343 2.343 0 0 0 .554-.851 3.521 3.521 0 0 0 .223-1.166c.023-.513.029-.676.029-1.981s-.006-1.467-.028-1.978a3.525 3.525 0 0 0 -.223-1.168 2.349 2.349 0 0 0 -.555-.851 2.353 2.353 0 0 0 -.85-.554 3.521 3.521 0 0 0 -1.166-.227c-.512-.019-.676-.025-1.984-.025" transform="translate(10.757 5.183)"/><path d="m-1.025 0a2.467 2.467 0 0 0 -2.467 2.467 2.467 2.467 0 0 0 2.467 2.467 2.466 2.466 0 0 0 2.467-2.467 2.466 2.466 0 0 0 -2.467-2.467m0 4.068a1.6 1.6 0 0 1 -1.6-1.6 1.6 1.6 0 0 1 1.6-1.6 1.6 1.6 0 0 1 1.6 1.6 1.6 1.6 0 0 1 -1.6 1.6" transform="translate(9.786 6.295)"/><path d="m-.479-.24a.576.576 0 0 1 -.576.576.576.576 0 0 1 -.577-.576.576.576 0 0 1 .576-.576.576.576 0 0 1 .577.576" transform="translate(12.381 6.437)"/></g></svg>