<svg height="17.523" viewBox="0 0 17.522 17.523" width="17.522" xmlns="http://www.w3.org/2000/svg"><path d="m-3.641-7.282a8.761 8.761 0 0 1 -8.759-8.761 8.761 8.761 0 0 1 8.761-8.762 8.761 8.761 0 0 1 8.759 8.762 8.761 8.761 0 0 1 -8.761 8.761" fill="#fff" transform="translate(12.402 24.805)"/><g fill="#f38b00"><path d="m95.525-9.309h1.813v-5.858h-1.813z" transform="translate(-90.736 21.975)"/><path d="m-.446-.9a1.077 1.077 0 0 0 1.073-1.079 1.076 1.076 0 0 0 -1.073-1.081 1.076 1.076 0 0 0 -1.072 1.081 1.077 1.077 0 0 0 1.072 1.079" transform="translate(6.133 6.94)"/><path d="m-.723-1.231c0-.824.379-1.314 1.1-1.314.667 0 .987.47.987 1.314v3.075h1.8v-3.709a2.045 2.045 0 0 0 -2.121-2.328 2.042 2.042 0 0 0 -1.765.969v-.789h-1.74v5.857h1.739z" transform="translate(10.224 10.822)"/></g></svg>