<svg height="17.523" viewBox="0 0 17.522 17.523" width="17.522" xmlns="http://www.w3.org/2000/svg"><path d="m-3.641-7.282a8.761 8.761 0 0 1 -8.759-8.761 8.761 8.761 0 0 1 8.761-8.762 8.761 8.761 0 0 1 8.759 8.762 8.761 8.761 0 0 1 -8.761 8.761" fill="#fff" transform="translate(12.402 24.805)"/><path d="m-.461-4.4h2.133v-5.342h1.487l.159-1.789h-1.646v-1.018c0-.422.085-.588.492-.588h1.154v-1.856h-1.477c-1.587 0-2.3.7-2.3 2.037v1.426h-1.111v1.81h1.109z" fill="#f38b00" transform="translate(7.887 18.459)"/></svg>