<svg xmlns="http://www.w3.org/2000/svg" xmlns:xlink="http://www.w3.org/1999/xlink" width="225.983" height="141.999" viewBox="0 0 225.983 141.999">
  <defs>
    <clipPath id="clip-path">
      <rect id="Rectangle_973" data-name="Rectangle 973" width="89.821" height="91.555" fill="none"/>
    </clipPath>
    <clipPath id="clip-path-2">
      <rect id="Rectangle_974" data-name="Rectangle 974" width="109.817" height="108.687" fill="none"/>
    </clipPath>
  </defs>
  <g id="illu-ballon" transform="translate(-1570.838 -4819.925)">
    <g id="Groupe_1777" data-name="Groupe 1777" transform="translate(1707 4870.369)">
      <g id="Groupe_1776" data-name="Groupe 1776" transform="translate(0 0)" clip-path="url(#clip-path)">
        <path id="Tracé_1439" data-name="Tracé 1439" d="M48.754.143c-9.636-.72-18.98,2.712-27,7.844a78.328,78.328,0,0,0-11.357,8.892A29.608,29.608,0,0,0,2.1,28.973C.478,33.826.133,39.151.02,44.232A66.6,66.6,0,0,0,1.393,59.787C3.345,68.8,7.839,77.533,15.033,83.472c7.69,6.348,17.389,8.191,27.141,8.066a115.247,115.247,0,0,0,14.851-1.119c4.877-.7,9.527-2.171,13.423-5.272a47.546,47.546,0,0,0,9.283-10.555,60.816,60.816,0,0,0,6.5-12.459,51.345,51.345,0,0,0,2.88-27.167C86.191,18.375,71.31,4.085,54.907.82A35.513,35.513,0,0,0,48.754.143c-1.966-.043-1.966,3.012,0,3.055,15.474.337,30.74,12.3,35.892,26.718,5.78,16.174-.307,34.991-11,47.683-2.967,3.522-6.276,6.725-10.694,8.3-4.348,1.552-9.018,1.9-13.587,2.239-9.128.686-18.957.826-27.271-3.574C5.126,75.586,1.6,54.244,3.557,36.872A26.524,26.524,0,0,1,8.1,23.917a50.661,50.661,0,0,1,9.887-9.531c7-5.485,15.341-10.073,24.3-11.085a34.57,34.57,0,0,1,6.469-.1c1.961.147,1.951-2.91,0-3.055" transform="translate(0 0.011)" fill="#fff"/>
        <path id="Tracé_1440" data-name="Tracé 1440" d="M36.821,2.561c4.808,4.24,4.826,12.132,4.73,18.027a84.938,84.938,0,0,1-4.245,25c-.612,1.873,2.336,2.676,2.945.813a87.861,87.861,0,0,0,4.366-26.965c.021-6.409-.469-14.48-5.636-19.037-1.47-1.3-3.639.857-2.16,2.16" transform="translate(8.064 0)" fill="#fff"/>
        <path id="Tracé_1441" data-name="Tracé 1441" d="M37.392,39.164c.588,3.85,3.624,6.953,5.988,9.867a54.312,54.312,0,0,0,8.364,8.621C57.573,62.25,65.531,65,72.766,62.18c1.811-.706,1.024-3.661-.811-2.945-6.58,2.565-13.676-.082-18.86-4.4a54.042,54.042,0,0,1-7.054-7.355c-2.193-2.67-5.16-5.589-5.7-9.131-.3-1.937-3.242-1.113-2.946.813" transform="translate(8.295 8.268)" fill="#fff"/>
        <path id="Tracé_1442" data-name="Tracé 1442" d="M50.829,62.834a58.461,58.461,0,0,0,9.093-9.981c2.74-4.114,3.528-8.946,3.886-13.788A99.32,99.32,0,0,0,61.016,7.92c-.47-1.909-3.417-1.1-2.946.811a96.435,96.435,0,0,1,2.76,29.17c-.293,4.7-.88,9.406-3.547,13.41a55.168,55.168,0,0,1-8.615,9.363c-1.441,1.344.723,3.5,2.16,2.16" transform="translate(10.698 1.516)" fill="#fff"/>
        <path id="Tracé_1443" data-name="Tracé 1443" d="M49.807,19.26c-5.25-.6-10.88,1.091-15.942,2.333a155.145,155.145,0,0,0-15.013,4.5A62.955,62.955,0,0,0,1.209,35.921c-1.543,1.215.632,3.363,2.16,2.16a59.355,59.355,0,0,1,16.841-9.236q7.123-2.5,14.467-4.306c4.822-1.184,10.131-2.791,15.129-2.224,1.95.221,1.934-2.835,0-3.055" transform="translate(0.151 4.248)" fill="#fff"/>
        <path id="Tracé_1444" data-name="Tracé 1444" d="M6.414,60.733c.985-3.235,3.627-5.641,6.166-7.72,2.685-2.2,5.529-4.186,8.223-6.373a31.578,31.578,0,0,1,11.333-6.182,74.354,74.354,0,0,1,12.613-2.105c1.934-.207,1.956-3.264,0-3.055a79.091,79.091,0,0,0-13.425,2.214,34.541,34.541,0,0,0-12.242,6.613c-3.022,2.428-6.21,4.658-9.176,7.153-2.78,2.34-5.357,5.094-6.439,8.642-.573,1.886,2.374,2.691,2.946.813" transform="translate(0.753 7.833)" fill="#fff"/>
        <path id="Tracé_1445" data-name="Tracé 1445" d="M21.722,41.592a32.089,32.089,0,0,0,4.241,11.824,65.584,65.584,0,0,0,9.242,12.055,95.079,95.079,0,0,0,11.122,9.3c3.742,2.734,8.028,5.124,12.788,5.09a1.528,1.528,0,0,0,0-3.055c-4.372.032-8.261-2.444-11.65-4.971A89.027,89.027,0,0,1,37,62.941a63.257,63.257,0,0,1-8.537-11.29,29.659,29.659,0,0,1-3.8-10.872c-.314-1.936-3.258-1.113-2.945.813" transform="translate(4.817 8.807)" fill="#fff"/>
      </g>
    </g>
    <g id="Groupe_1779" data-name="Groupe 1779" transform="translate(1570.838 4819.925)">
      <g id="Groupe_1778" data-name="Groupe 1778" clip-path="url(#clip-path-2)">
        <path id="Tracé_1446" data-name="Tracé 1446" d="M.206,1.661C-1.3,16.718,5.492,32.836,17.867,41.736a15.142,15.142,0,0,0,12.15,2.94A27.922,27.922,0,0,0,40.9,39.356c6.421-4.921,10.68-12.777,9.064-21.009-.715-3.643-3.09-8.03-7.424-7.662-4.169.353-6.948,4.22-8.5,7.742-3.22,7.321-3.071,15.976-1.6,23.705,2.869,15.073,12.128,28.561,24.344,37.653,13.1,9.752,29.393,14.546,45.566,15.469q2.929.166,5.861.162a1.662,1.662,0,0,0,0-3.322c-14.96,0-30.129-3.265-43.143-10.824-12.237-7.106-22.2-18.188-27.082-31.562A50.094,50.094,0,0,1,34.91,29.223a26.24,26.24,0,0,1,2.739-10.646c1.119-2.091,4.173-6.233,6.917-3.991a7.4,7.4,0,0,1,2.08,4.115,14.647,14.647,0,0,1,.226,5.2,18.13,18.13,0,0,1-4.359,9.441,26.73,26.73,0,0,1-8.194,6.219c-3.49,1.764-7.307,2.873-11.1,1.4-3.247-1.262-6.016-3.812-8.384-6.3A41.212,41.212,0,0,1,8.76,26.411a42.276,42.276,0,0,1-5.434-19.6,41.958,41.958,0,0,1,.2-5.152A1.673,1.673,0,0,0,1.867,0,1.7,1.7,0,0,0,.206,1.661" transform="translate(0)" fill="#fff"/>
        <path id="Tracé_1447" data-name="Tracé 1447" d="M31.55,146.094a41.077,41.077,0,0,0,11.934,5.548,110.845,110.845,0,0,0,13.474,3.185A122.483,122.483,0,0,0,84.8,156.505a123.78,123.78,0,0,0,15.944-1.936,1.676,1.676,0,0,0,1.16-2.043,1.7,1.7,0,0,0-2.043-1.16,118.233,118.233,0,0,1-53.811-2.431,40.866,40.866,0,0,1-12.819-5.709,1.674,1.674,0,0,0-2.273.6,1.7,1.7,0,0,0,.6,2.272" transform="translate(-10.315 -47.998)" fill="#fff"/>
      </g>
    </g>
  </g>
</svg>
